<svg xmlns="http://www.w3.org/2000/svg" width="382.7402038574219" height="372.9949951171875" viewBox="-92.49268341064453 -81.66746520996094 382.7402038574219 372.9949951171875"><title>Neo4j Graph Visualization</title><desc>Created using Neo4j (http://www.neo4j.com/)</desc><g class="layer relationships"><g class="relationship" transform="translate(43.217199783692934 -46.444179489938946) rotate(356.58242165847855)"><path class="outline" fill="#A5ABB6" stroke="none" d="M 21.40063509461097,12.933012701892217 L 21.90063509461097,12.06698729810778 A 56.7721360240227 56.7721360240227 0 0 0 26.05167039050891,14.24032032358565 L 25.62478786655634,15.144627412324809 A 57.7721360240227 57.7721360240227 0 0 1 21.40063509461097,12.933012701892217 Z M 71.59163680856058,16.60114995444748 L 71.22286156208052,15.67163135991396 A 56.7721360240227 56.7721360240227 0 0 0 75.50316164301736,13.765456739225812 L 74.17065275913153,11.077628605887421 L 81.99684543478791,11.1042406990486 L 77.27984015486514,17.349227583677 L 75.9473312709793,14.661399450338607 A 57.7721360240227 57.7721360240227 0 0 1 71.59163680856058,16.60114995444748"/><text text-anchor="middle" pointer-events="none" font-size="8px" fill="#000000" x="48.47286740583825" y="23.14428157400488" font-family="sans-serif">DIRECTED</text></g><g class="relationship" transform="translate(43.217199783692934 -46.444179489938946) rotate(356.58242165847855)"><path class="outline" fill="#A5ABB6" stroke="none" d="M 25 0.5 L 27.25239410630391 0.5 L 27.25239410630391 -0.5 L 25 -0.5 Z M 70.14301910630391 0.5 L 72.39541321260782 0.5 L 72.39541321260782 3.5 L 79.39541321260782 0 L 72.39541321260782 -3.5 L 72.39541321260782 -0.5 L 70.14301910630391 -0.5 Z"/><text text-anchor="middle" pointer-events="none" font-size="8px" fill="#000000" x="48.69770660630391" y="3" font-family="sans-serif">PRODU…</text></g><g class="relationship" transform="translate(43.217199783692934 -46.444179489938946) rotate(356.58242165847855)"><path class="outline" fill="#A5ABB6" stroke="none" d="M 21.40063509461097,-12.933012701892217 L 21.90063509461097,-12.06698729810778 A 56.7721360240227 56.7721360240227 0 0 1 31.14069821453576,-16.347165373721097 L 30.803455224700304,-17.28858300995214 A 57.7721360240227 57.7721360240227 0 0 0 21.40063509461097,-12.933012701892217 Z M 66.28762599489654,-18.412947542324794 L 66.01065990034846,-17.452067850338963 A 56.7721360240227 56.7721360240227 0 0 1 75.50316164301736,-13.765456739225812 L 74.17065275913153,-11.077628605887421 L 81.99684543478791,-11.1042406990486 L 77.27984015486514,-17.349227583677 L 75.9473312709793,-14.661399450338607 A 57.7721360240227 57.7721360240227 0 0 0 66.28762599489654,-18.412947542324794"/><text text-anchor="middle" pointer-events="none" font-size="8px" fill="#000000" x="48.472867405838265" y="-17.14428157400488" font-family="sans-serif">WROTE</text></g><g class="relationship" transform="translate(261.247520209785 86.21132139555084) rotate(487.44072331889924)"><path class="outline" fill="#A5ABB6" stroke="none" d="M 24.018736134675446,6.953439040707552 L 24.277555179777966,5.987513214418485 A 100.33912089717107 100.33912089717107 0 0 0 30.93409481314311,7.530261350651145 L 30.74161619013963,8.511562517310324 A 101.33912089717107 101.33912089717107 0 0 1 24.018736134675446,6.953439040707552 Z M 66.49945156538479,9.09477489167729 L 66.33907696587484,8.107718668439716 A 100.33912089717107 100.33912089717107 0 0 0 73.04238726235458,6.782870461467497 L 72.36084381982516,3.8613129083898317 L 79.97294545995737,5.679528687745137 L 73.95111185239381,10.678280532237718 L 73.26956840986439,7.756722979160052 A 101.33912089717107 101.33912089717107 0 0 1 66.49945156538479,9.09477489167729"/><text text-anchor="middle" pointer-events="none" font-size="8px" fill="#000000" x="48.602757426150966" y="12.893076014778146" transform="rotate(180 48.602757426150966 9.893076014778146)" font-family="sans-serif">WROTE</text></g><g class="relationship" transform="translate(151.7313933150621 262.3275018311337) rotate(296.2951620449097)"><path class="outline" fill="#A5ABB6" stroke="none" d="M 24.018736134675446,6.953439040707552 L 24.277555179777966,5.987513214418485 A 99.81141943012554 99.81141943012554 0 0 0 25.409886362368628,6.283815560632576 L 25.162412023002744,7.252710008627517 A 100.81141943012554 100.81141943012554 0 0 1 24.018736134675446,6.953439040707552 Z M 71.85264573057907,8.016040990048651 L 71.63697577566252,7.039574671865438 A 99.81141943012554 99.81141943012554 0 0 0 72.77838761914022,6.780445377867326 L 72.09707070265256,3.858834989860783 L 79.70903134390343,5.677640970730536 L 73.6868101744571,10.675925895209383 L 73.00549325796943,7.754315507202841 A 100.81141943012554 100.81141943012554 0 0 1 71.85264573057907,8.016040990048651"/><text text-anchor="middle" pointer-events="none" font-size="8px" fill="#000000" x="48.47089561117532" y="12.875101704213193" font-family="sans-serif">DIRECTED</text></g><g class="relationship" transform="translate(261.247520209785 86.21132139555084) rotate(487.44072331889924)"><path class="outline" fill="#A5ABB6" stroke="none" d="M 24.018736134675446,-6.953439040707552 L 24.277555179777966,-5.987513214418485 A 100.33912089717107 100.33912089717107 0 0 1 25.538569794344543,-6.316638789521406 L 25.292318276277257,-7.285844747947976 A 101.33912089717107 101.33912089717107 0 0 0 24.018736134675446,-6.953439040707552 Z M 71.98582345046505,-8.047418532668956 L 71.77131011522788,-7.070697472690512 A 100.33912089717107 100.33912089717107 0 0 1 73.04238726235458,-6.782870461467497 L 72.36084381982516,-3.8613129083898317 L 79.97294545995737,-5.679528687745137 L 73.95111185239381,-10.678280532237718 L 73.26956840986439,-7.756722979160052 A 101.33912089717107 101.33912089717107 0 0 0 71.98582345046505,-8.047418532668956"/><text text-anchor="middle" pointer-events="none" font-size="8px" fill="#000000" x="48.602757426150916" y="-6.893076014778146" transform="rotate(180 48.602757426150916 -9.893076014778146)" font-family="sans-serif">DIRECTED</text></g><g class="relationship" transform="translate(151.7313933150621 262.3275018311337) rotate(296.2951620449097)"><path class="outline" fill="#A5ABB6" stroke="none" d="M 24.018736134675446,-6.953439040707552 L 24.277555179777966,-5.987513214418485 A 99.81141943012554 99.81141943012554 0 0 1 30.803903931950295,-7.503429938059753 L 30.61047168115883,-8.484543572841034 A 100.81141943012554 100.81141943012554 0 0 0 24.018736134675446,-6.953439040707552 Z M 66.36723032997537,-9.069124961805272 L 66.2059730143373,-8.08221256541276 A 99.81141943012554 99.81141943012554 0 0 1 72.77838761914022,-6.780445377867326 L 72.09707070265256,-3.858834989860783 L 79.70903134390343,-5.677640970730536 L 73.6868101744571,-10.675925895209383 L 73.00549325796943,-7.754315507202841 A 100.81141943012554 100.81141943012554 0 0 0 66.36723032997537,-9.069124961805272"/><text text-anchor="middle" pointer-events="none" font-size="8px" fill="#000000" x="48.470895611175315" y="-6.875101704213193" font-family="sans-serif">WROTE</text></g><g class="relationship" transform="translate(-35.93381627558004 196.43916222859633) rotate(254.82694799137317)"><path class="outline" fill="#A5ABB6" stroke="none" d="M 21.40063509461097,12.933012701892217 L 21.90063509461097,12.06698729810778 A 57.70220666658511 57.70220666658511 0 0 0 31.57730493257887,16.518620172965527 L 31.245005102069467,17.46179397595384 A 58.70220666658511 58.70220666658511 0 0 1 21.40063509461097,12.933012701892217 Z M 66.74296310709559,18.577529771900394 L 66.47055044005535,17.615349259295805 A 57.70220666658511 57.70220666658511 0 0 0 76.40768208427956,13.780197490342054 L 75.07380188427501,11.09304963210354 L 82.90000712017019,11.115668333371204 L 78.18618901761894,17.36306130132674 L 76.8523088176144,14.675913443088227 A 58.70220666658511 58.70220666658511 0 0 1 66.74296310709559,18.577529771900394"/><text text-anchor="middle" pointer-events="none" font-size="8px" fill="#000000" x="48.9232886722683" y="23.268889241691845" transform="rotate(180 48.9232886722683 20.268889241691845)" font-family="sans-serif">WROTE</text></g><g class="relationship" transform="translate(-35.93381627558004 196.43916222859633) rotate(254.82694799137317)"><path class="outline" fill="#A5ABB6" stroke="none" d="M 25 0.5 L 27.701140469412238 0.5 L 27.701140469412238 -0.5 L 25 -0.5 Z M 70.59176546941224 0.5 L 73.29290593882448 0.5 L 73.29290593882448 3.5 L 80.29290593882448 0 L 73.29290593882448 -3.5 L 73.29290593882448 -0.5 L 70.59176546941224 -0.5 Z"/><text text-anchor="middle" pointer-events="none" font-size="8px" fill="#000000" x="49.14645296941224" y="3" transform="rotate(180 49.14645296941224 0)" font-family="sans-serif">PRODU…</text></g><g class="relationship" transform="translate(-35.93381627558004 196.43916222859633) rotate(254.82694799137317)"><path class="outline" fill="#A5ABB6" stroke="none" d="M 21.40063509461097,-12.933012701892217 L 21.90063509461097,-12.06698729810778 A 57.70220666658511 57.70220666658511 0 0 1 26.47490193215375,-14.442137817528192 L 26.054175622048728,-15.349325434278668 A 58.70220666658511 58.70220666658511 0 0 0 21.40063509461097,-12.933012701892217 Z M 72.05620947410256,-16.795214683677607 L 71.69328493930263,-15.863396148746979 A 57.70220666658511 57.70220666658511 0 0 1 76.40768208427956,-13.780197490342054 L 75.07380188427501,-11.09304963210354 L 82.90000712017019,-11.115668333371204 L 78.18618901761894,-17.36306130132674 L 76.8523088176144,-14.675913443088227 A 58.70220666658511 58.70220666658511 0 0 0 72.05620947410256,-16.795214683677607"/><text text-anchor="middle" pointer-events="none" font-size="8px" fill="#000000" x="48.923288672268285" y="-17.268889241691845" transform="rotate(180 48.923288672268285 -20.268889241691845)" font-family="sans-serif">DIRECTED</text></g></g><g class="layer nodes"><g class="node" transform="translate(151.7313933150621,262.3275018311337)"><circle class="outline" cx="0" cy="0" r="25" fill="#68BDF6" stroke="#5CA8DB" stroke-width="2px"/><text text-anchor="middle" pointer-events="none" y="0" font-size="10px" fill="#FFFFFF" font-family="sans-serif"> Andy</text><text text-anchor="middle" pointer-events="none" y="10" font-size="10px" fill="#FFFFFF" font-family="sans-serif"> Wacho…</text></g><g class="node" transform="translate(197.8276367476683,169.03901033621472)"><circle class="outline" cx="0" cy="0" r="25" fill="#6DCE9E" stroke="#60B58B" stroke-width="2px"/><text text-anchor="middle" pointer-events="none" y="0" font-size="10px" fill="#FFFFFF" font-family="sans-serif"> Speed</text><text text-anchor="middle" pointer-events="none" y="10" font-size="10px" fill="#FFFFFF" font-family="sans-serif"> Racer</text></g><g class="node" transform="translate(261.247520209785,86.21132139555084)"><circle class="outline" cx="0" cy="0" r="25" fill="#68BDF6" stroke="#5CA8DB" stroke-width="2px"/><text text-anchor="middle" pointer-events="none" y="0" font-size="10px" fill="#FFFFFF" font-family="sans-serif"> Lana</text><text text-anchor="middle" pointer-events="none" y="10" font-size="10px" fill="#FFFFFF" font-family="sans-serif"> Wacho…</text></g><g class="node" transform="translate(147.42695470603192,-52.66746470413056)"><circle class="outline" cx="0" cy="0" r="25" fill="#6DCE9E" stroke="#60B58B" stroke-width="2px"/><text text-anchor="middle" pointer-events="none" y="0" font-size="10px" fill="#FFFFFF" font-family="sans-serif"> Jerry</text><text text-anchor="middle" pointer-events="none" y="10" font-size="10px" fill="#FFFFFF" font-family="sans-serif"> Maguire</text></g><g class="node" transform="translate(43.217199783692934,-46.444179489938946)"><circle class="outline" cx="0" cy="0" r="25" fill="#68BDF6" stroke="#5CA8DB" stroke-width="2px"/><text text-anchor="middle" pointer-events="none" y="0" font-size="10px" fill="#FFFFFF" font-family="sans-serif"> Cameron</text><text text-anchor="middle" pointer-events="none" y="10" font-size="10px" fill="#FFFFFF" font-family="sans-serif"> Crowe</text></g><g class="node" transform="translate(-63.49268368431837,94.81679821264895)"><circle class="outline" cx="0" cy="0" r="25" fill="#6DCE9E" stroke="#60B58B" stroke-width="2px"/><text text-anchor="middle" pointer-events="none" y="5" font-size="10px" fill="#FFFFFF" font-family="sans-serif"> Somethi…</text></g><g class="node" transform="translate(-35.93381627558004,196.43916222859633)"><circle class="outline" cx="0" cy="0" r="25" fill="#68BDF6" stroke="#5CA8DB" stroke-width="2px"/><text text-anchor="middle" pointer-events="none" y="0" font-size="10px" fill="#FFFFFF" font-family="sans-serif"> Nancy</text><text text-anchor="middle" pointer-events="none" y="10" font-size="10px" fill="#FFFFFF" font-family="sans-serif"> Meyers</text></g></g></svg>