<svg xmlns="http://www.w3.org/2000/svg" width="241.47018432617188" height="241.9859161376953" viewBox="-9.32693099975586 -9.66229248046875 241.47018432617188 241.9859161376953"><title>Neo4j Graph Visualization</title><desc>Created using Neo4j (http://www.neo4j.com/)</desc><g class="layer relationships"><g class="relationship" transform="translate(127.23033675757543 126.86491523749676) rotate(501.7988829472108)"><path class="outline" fill="#A5ABB6" stroke="none" d="M 25 0.5 L 30.221780498493153 0.5 L 30.221780498493153 -0.5 L 25 -0.5 Z M 75.78428049849316 0.5 L 81.0060609969863 0.5 L 81.0060609969863 3.5 L 88.0060609969863 0 L 81.0060609969863 -3.5 L 81.0060609969863 -0.5 L 75.78428049849316 -0.5 Z"/><text text-anchor="middle" pointer-events="none" font-size="8px" fill="#000000" x="53.00303049849315" y="3" transform="rotate(180 53.00303049849315 0)" font-family="sans-serif">ACTED_IN</text></g><g class="relationship" transform="translate(127.23033675757543 126.86491523749676) rotate(198.34953425862682)"><path class="outline" fill="#A5ABB6" stroke="none" d="M 25 0.5 L 30.37831518228179 0.5 L 30.37831518228179 -0.5 L 25 -0.5 Z M 75.9408151822818 0.5 L 81.31913036456358 0.5 L 81.31913036456358 3.5 L 88.31913036456358 0 L 81.31913036456358 -3.5 L 81.31913036456358 -0.5 L 75.9408151822818 -0.5 Z"/><text text-anchor="middle" pointer-events="none" font-size="8px" fill="#000000" x="53.15956518228179" y="3" transform="rotate(180 53.15956518228179 0)" font-family="sans-serif">ACTED_IN</text></g><g class="relationship" transform="translate(127.23033675757543 126.86491523749676) rotate(251.64065275728245)"><path class="outline" fill="#A5ABB6" stroke="none" d="M 25 0.5 L 30.36569828826385 0.5 L 30.36569828826385 -0.5 L 25 -0.5 Z M 75.92819828826384 0.5 L 81.2938965765277 0.5 L 81.2938965765277 3.5 L 88.2938965765277 0 L 81.2938965765277 -3.5 L 81.2938965765277 -0.5 L 75.92819828826384 -0.5 Z"/><text text-anchor="middle" pointer-events="none" font-size="8px" fill="#000000" x="53.14694828826385" y="3" transform="rotate(180 53.14694828826385 0)" font-family="sans-serif">ACTED_IN</text></g><g class="relationship" transform="translate(127.23033675757543 126.86491523749676) rotate(308.265272786542)"><path class="outline" fill="#A5ABB6" stroke="none" d="M 25 0.5 L 30.18361477830257 0.5 L 30.18361477830257 -0.5 L 25 -0.5 Z M 75.74611477830257 0.5 L 80.92972955660514 0.5 L 80.92972955660514 3.5 L 87.92972955660514 0 L 80.92972955660514 -3.5 L 80.92972955660514 -0.5 L 75.74611477830257 -0.5 Z"/><text text-anchor="middle" pointer-events="none" font-size="8px" fill="#000000" x="52.96486477830257" y="3" font-family="sans-serif">ACTED_IN</text></g><g class="relationship" transform="translate(127.23033675757543 126.86491523749676) rotate(405.20523603461663)"><path class="outline" fill="#A5ABB6" stroke="none" d="M 25 0.5 L 27.590593732688696 0.5 L 27.590593732688696 -0.5 L 25 -0.5 Z M 73.15309373268869 0.5 L 75.74368746537739 0.5 L 75.74368746537739 3.5 L 82.74368746537739 0 L 75.74368746537739 -3.5 L 75.74368746537739 -0.5 L 73.15309373268869 -0.5 Z"/><text text-anchor="middle" pointer-events="none" font-size="8px" fill="#000000" x="50.371843732688696" y="3" font-family="sans-serif">ACTED_IN</text></g></g><g class="layer nodes"><g class="node" transform="translate(127.23033675757543,126.86491523749676)"><circle class="outline" cx="0" cy="0" r="25" fill="#68BDF6" stroke="#5CA8DB" stroke-width="2px"/><text text-anchor="middle" pointer-events="none" y="0" font-size="10px" fill="#FFFFFF" font-family="sans-serif"> Hugo</text><text text-anchor="middle" pointer-events="none" y="10" font-size="10px" fill="#FFFFFF" font-family="sans-serif"> Weaving</text></g><g class="node" transform="translate(203.14323791170708,203.32362060843514)"><circle class="outline" cx="0" cy="0" r="25" fill="#6DCE9E" stroke="#60B58B" stroke-width="2px"/><text text-anchor="middle" pointer-events="none" y="0" font-size="10px" fill="#FFFFFF" font-family="sans-serif"> V for</text><text text-anchor="middle" pointer-events="none" y="10" font-size="10px" fill="#FFFFFF" font-family="sans-serif"> Vendetta</text></g><g class="node" transform="translate(197.16808661675606,38.19792610195289)"><circle class="outline" cx="0" cy="0" r="25" fill="#6DCE9E" stroke="#60B58B" stroke-width="2px"/><text text-anchor="middle" pointer-events="none" y="0" font-size="10px" fill="#FFFFFF" font-family="sans-serif"> Cloud</text><text text-anchor="middle" pointer-events="none" y="10" font-size="10px" fill="#FFFFFF" font-family="sans-serif"> Atlas</text></g><g class="node" transform="translate(91.54551160650247,19.33770819002292)"><circle class="outline" cx="0" cy="0" r="25" fill="#6DCE9E" stroke="#60B58B" stroke-width="2px"/><text text-anchor="middle" pointer-events="none" y="-5" font-size="10px" fill="#FFFFFF" font-family="sans-serif"> The</text><text text-anchor="middle" pointer-events="none" y="5" font-size="10px" fill="#FFFFFF" font-family="sans-serif"> Matrix</text><text text-anchor="middle" pointer-events="none" y="15" font-size="10px" fill="#FFFFFF" font-family="sans-serif"> Revol…</text></g><g class="node" transform="translate(19.67306884468004,91.19056274590133)"><circle class="outline" cx="0" cy="0" r="25" fill="#6DCE9E" stroke="#60B58B" stroke-width="2px"/><text text-anchor="middle" pointer-events="none" y="-5" font-size="10px" fill="#FFFFFF" font-family="sans-serif"> The</text><text text-anchor="middle" pointer-events="none" y="5" font-size="10px" fill="#FFFFFF" font-family="sans-serif"> Matrix</text><text text-anchor="middle" pointer-events="none" y="15" font-size="10px" fill="#FFFFFF" font-family="sans-serif"> Reloa…</text></g><g class="node" transform="translate(38.42510724323185,196.75054346647778)"><circle class="outline" cx="0" cy="0" r="25" fill="#6DCE9E" stroke="#60B58B" stroke-width="2px"/><text text-anchor="middle" pointer-events="none" y="0" font-size="10px" fill="#FFFFFF" font-family="sans-serif"> The</text><text text-anchor="middle" pointer-events="none" y="10" font-size="10px" fill="#FFFFFF" font-family="sans-serif"> Matrix</text></g></g></svg>