<svg xmlns="http://www.w3.org/2000/svg" width="285.718994140625" height="265.8405456542969" viewBox="-31.824111938476562 -40.55256271362305 285.718994140625 265.8405456542969"><title>Neo4j Graph Visualization</title><desc>Created using Neo4j (http://www.neo4j.com/)</desc><g class="layer relationships"><g class="relationship" transform="translate(161.76727739811247 196.28799125183556) rotate(244.08356341558977)"><path class="outline" fill="#A5ABB6" stroke="none" d="M 25 0.5 L 30.768430980040804 0.5 L 30.768430980040804 -0.5 L 25 -0.5 Z M 77.6590559800408 0.5 L 83.42748696008161 0.5 L 83.42748696008161 3.5 L 90.42748696008161 0 L 83.42748696008161 -3.5 L 83.42748696008161 -0.5 L 77.6590559800408 -0.5 Z"/><text text-anchor="middle" pointer-events="none" font-size="8px" fill="#000000" x="54.213743480040804" y="3" transform="rotate(180 54.213743480040804 0)" font-family="sans-serif">DIRECTED</text></g><g class="relationship" transform="translate(224.89489196194785 91.98335267420009) rotate(539.7551255787846)"><path class="outline" fill="#A5ABB6" stroke="none" d="M 25 0.5 L 30.50743477438413 0.5 L 30.50743477438413 -0.5 L 25 -0.5 Z M 76.06993477438414 0.5 L 81.57736954876826 0.5 L 81.57736954876826 3.5 L 88.57736954876826 0 L 81.57736954876826 -3.5 L 81.57736954876826 -0.5 L 76.06993477438414 -0.5 Z"/><text text-anchor="middle" pointer-events="none" font-size="8px" fill="#000000" x="53.28868477438413" y="3" transform="rotate(180 53.28868477438413 0)" font-family="sans-serif">ACTED_IN</text></g><g class="relationship" transform="translate(156.8513960622894 -11.552562268886744) rotate(473.6402438064087)"><path class="outline" fill="#A5ABB6" stroke="none" d="M 25 0.5 L 30.49391143396179 0.5 L 30.49391143396179 -0.5 L 25 -0.5 Z M 76.05641143396178 0.5 L 81.55032286792358 0.5 L 81.55032286792358 3.5 L 88.55032286792358 0 L 81.55032286792358 -3.5 L 81.55032286792358 -0.5 L 76.05641143396178 -0.5 Z"/><text text-anchor="middle" pointer-events="none" font-size="8px" fill="#000000" x="53.27516143396179" y="3" transform="rotate(180 53.27516143396179 0)" font-family="sans-serif">ACTED_IN</text></g><g class="relationship" transform="translate(36.02851286853616 5.034126887487866) rotate(409.26822894122864)"><path class="outline" fill="#A5ABB6" stroke="none" d="M 25 0.5 L 36.305150668128036 0.5 L 36.305150668128036 -0.5 L 25 -0.5 Z M 72.07858816812804 0.5 L 83.38373883625607 0.5 L 83.38373883625607 3.5 L 90.38373883625607 0 L 83.38373883625607 -3.5 L 83.38373883625607 -0.5 L 72.07858816812804 -0.5 Z"/><text text-anchor="middle" pointer-events="none" font-size="8px" fill="#000000" x="54.191869418128036" y="3" font-family="sans-serif">WROTE</text></g><g class="relationship" transform="translate(-2.8241114750494467 105.62793785836007) rotate(353.423571802574)"><path class="outline" fill="#A5ABB6" stroke="none" d="M 25 0.5 L 36.06263547059007 0.5 L 36.06263547059007 -0.5 L 25 -0.5 Z M 71.83607297059007 0.5 L 82.89870844118013 0.5 L 82.89870844118013 3.5 L 89.89870844118013 0 L 82.89870844118013 -3.5 L 82.89870844118013 -0.5 L 71.83607297059007 -0.5 Z"/><text text-anchor="middle" pointer-events="none" font-size="8px" fill="#000000" x="53.94935422059007" y="3" font-family="sans-serif">WROTE</text></g><g class="relationship" transform="translate(54.019159008388314 192.0878536279603) rotate(299.9068652330363)"><path class="outline" fill="#A5ABB6" stroke="none" d="M 25 0.5 L 31.180006586794832 0.5 L 31.180006586794832 -0.5 L 25 -0.5 Z M 76.74250658679483 0.5 L 82.92251317358966 0.5 L 82.92251317358966 3.5 L 89.92251317358966 0 L 82.92251317358966 -3.5 L 82.92251317358966 -0.5 L 76.74250658679483 -0.5 Z"/><text text-anchor="middle" pointer-events="none" font-size="8px" fill="#000000" x="53.96125658679483" y="3" font-family="sans-serif">ACTED_IN</text></g></g><g class="layer nodes"><g class="node" transform="translate(111.31855970924286,92.46876553006211)"><circle class="outline" cx="0" cy="0" r="25" fill="#6DCE9E" stroke="#60B58B" stroke-width="2px"/><text text-anchor="middle" pointer-events="none" y="-5" font-size="10px" fill="#FFFFFF" font-family="sans-serif"> Captain</text><text text-anchor="middle" pointer-events="none" y="5" font-size="10px" fill="#FFFFFF" font-family="sans-serif"> America:</text><text text-anchor="middle" pointer-events="none" y="15" font-size="10px" fill="#FFFFFF" font-family="sans-serif"> The Fi…</text></g><g class="node" transform="translate(161.76727739811247,196.28799125183556)"><circle class="outline" cx="0" cy="0" r="25" fill="#68BDF6" stroke="#5CA8DB" stroke-width="2px"/><text text-anchor="middle" pointer-events="none" y="0" font-size="10px" fill="#FFFFFF" font-family="sans-serif"> Joe</text><text text-anchor="middle" pointer-events="none" y="10" font-size="10px" fill="#FFFFFF" font-family="sans-serif"> Johnston</text></g><g class="node" transform="translate(224.89489196194785,91.98335267420009)"><circle class="outline" cx="0" cy="0" r="25" fill="#68BDF6" stroke="#5CA8DB" stroke-width="2px"/><text text-anchor="middle" pointer-events="none" y="0" font-size="10px" fill="#FFFFFF" font-family="sans-serif"> Hugo</text><text text-anchor="middle" pointer-events="none" y="10" font-size="10px" fill="#FFFFFF" font-family="sans-serif"> Weaving</text></g><g class="node" transform="translate(156.8513960622894,-11.552562268886744)"><circle class="outline" cx="0" cy="0" r="25" fill="#68BDF6" stroke="#5CA8DB" stroke-width="2px"/><text text-anchor="middle" pointer-events="none" y="0" font-size="10px" fill="#FFFFFF" font-family="sans-serif"> Chris</text><text text-anchor="middle" pointer-events="none" y="10" font-size="10px" fill="#FFFFFF" font-family="sans-serif"> Evans</text></g><g class="node" transform="translate(36.02851286853616,5.034126887487866)"><circle class="outline" cx="0" cy="0" r="25" fill="#68BDF6" stroke="#5CA8DB" stroke-width="2px"/><text text-anchor="middle" pointer-events="none" y="0" font-size="10px" fill="#FFFFFF" font-family="sans-serif"> Stephen</text><text text-anchor="middle" pointer-events="none" y="10" font-size="10px" fill="#FFFFFF" font-family="sans-serif"> McFeely</text></g><g class="node" transform="translate(-2.8241114750494467,105.62793785836007)"><circle class="outline" cx="0" cy="0" r="25" fill="#68BDF6" stroke="#5CA8DB" stroke-width="2px"/><text text-anchor="middle" pointer-events="none" y="5" font-size="10px" fill="#FFFFFF" font-family="sans-serif"> Christop…</text></g><g class="node" transform="translate(54.019159008388314,192.0878536279603)"><circle class="outline" cx="0" cy="0" r="25" fill="#68BDF6" stroke="#5CA8DB" stroke-width="2px"/><text text-anchor="middle" pointer-events="none" y="-5" font-size="10px" fill="#FFFFFF" font-family="sans-serif"> Samuel</text><text text-anchor="middle" pointer-events="none" y="5" font-size="10px" fill="#FFFFFF" font-family="sans-serif"> L.</text><text text-anchor="middle" pointer-events="none" y="15" font-size="10px" fill="#FFFFFF" font-family="sans-serif"> Jackson</text></g></g></svg>